<svg xmlns="http://www.w3.org/2000/svg" viewBox="0 0 900 470" font-family="Helvetica, Arial, sans-serif">
<rect width="900" height="470" fill="white"/>
<defs><marker id="a" viewBox="0 0 10 10" refX="9" refY="5" markerWidth="6" markerHeight="6" orient="auto"><path d="M0,0 L10,5 L0,10 z" fill="#555"/></marker></defs>
<text x="450.0" y="32" font-size="15" fill="#111" text-anchor="middle" font-weight="bold">같은 주소가 헤더 하나로 두 세대로 나누어진다</text>
<text x="450.0" y="52" font-size="11" fill="#777" text-anchor="middle">헤더를 빠뜨리면 오류가 아니라 v0.3으로 처리된다.</text>
<text x="44" y="80" font-size="10.5" fill="#888" text-anchor="start" font-weight="bold">클라이언트 요청</text>
<rect x="44" y="92" width="196" height="52" rx="6" fill="#fff7f2" stroke="#d9822b" stroke-width="1.5"/>
<text x="142.0" y="114" font-size="11.5" fill="#222" text-anchor="middle" font-weight="bold">헤더 없음</text>
<text x="142.0" y="130" font-size="9" fill="#888" text-anchor="middle">A2A-Version 헤더를 안 보냄</text>
<rect x="44" y="168" width="196" height="52" rx="6" fill="#fafafa" stroke="#999" stroke-width="1.5"/>
<text x="142.0" y="190" font-size="11.5" fill="#222" text-anchor="middle" font-weight="bold" font-family="Menlo, monospace">A2A-Version: 0.3</text>
<text x="142.0" y="206" font-size="9" fill="#888" text-anchor="middle">이전 버전을 명시</text>
<rect x="44" y="244" width="196" height="52" rx="6" fill="#fafafa" stroke="#999" stroke-width="1.5"/>
<text x="142.0" y="266" font-size="11.5" fill="#222" text-anchor="middle" font-weight="bold" font-family="Menlo, monospace">A2A-Version: 1.0</text>
<text x="142.0" y="282" font-size="9" fill="#888" text-anchor="middle">새 버전을 명시</text>
<rect x="356" y="92" width="150" height="204" rx="6" fill="#ffffff" stroke="#326CE5" stroke-width="1.6"/>
<rect x="356" y="92" width="150" height="26" rx="6" fill="#326CE5"/>
<rect x="356" y="108" width="150" height="10" fill="#326CE5"/>
<text x="431.0" y="110" font-size="11.5" fill="#ffffff" text-anchor="middle" font-weight="bold">서버 1대</text>
<text x="431.0" y="208" font-size="10" fill="#555" text-anchor="middle" font-family="Menlo, monospace">/a2a/jsonrpc</text>
<text x="431.0" y="226" font-size="9.5" fill="#999" text-anchor="middle">v0.3 + v1.0</text>
<text x="640" y="80" font-size="10.5" fill="#888" text-anchor="start" font-weight="bold">처리되는 세대</text>
<rect x="640" y="104" width="216" height="62" rx="6" fill="#fafafa" stroke="#b5b5b5" stroke-width="1.5"/>
<text x="748.0" y="128" font-size="12" fill="#222" text-anchor="middle" font-weight="bold">v0.3으로 처리</text>
<text x="748.0" y="146" font-size="9" fill="#777" text-anchor="middle">메서드 이름도 상태 이름도 v0.3</text>
<rect x="640" y="214" width="216" height="62" rx="6" fill="#fafafa" stroke="#326CE5" stroke-width="1.5"/>
<text x="748.0" y="238" font-size="12" fill="#222" text-anchor="middle" font-weight="bold">v1.0으로 처리</text>
<text x="748.0" y="256" font-size="9" fill="#777" text-anchor="middle">새 이름과 새 형식</text>
<line x1="246" y1="118.0" x2="348" y2="118.0" stroke="#d9822b" stroke-width="1.8" marker-end="url(#a)"/>
<line x1="246" y1="194.0" x2="348" y2="194.0" stroke="#7b8ca5" stroke-width="1.8" marker-end="url(#a)"/>
<line x1="246" y1="270.0" x2="348" y2="270.0" stroke="#7b8ca5" stroke-width="1.8" marker-end="url(#a)"/>
<line x1="512" y1="135.0" x2="632" y2="135.0" stroke="#7b8ca5" stroke-width="1.8" marker-end="url(#a)"/>
<line x1="512" y1="245.0" x2="632" y2="245.0" stroke="#326CE5" stroke-width="1.8" marker-end="url(#a)"/>
<rect x="529.4" y="116.0" width="87.2" height="14" fill="white"/>
<text x="573.0" y="126.0" font-size="9" fill="#d9822b" text-anchor="middle">오류 없이 조용히</text>
<text x="44" y="322" font-size="11" fill="#777" text-anchor="start" font-weight="bold">REST는 경로까지 나누어지는데 이름과 실제가 반대로 보인다</text>
<rect x="44" y="330" width="812" height="66" rx="6" fill="#fbfcfe" stroke="#dde3ee" stroke-width="1.5"/>
<text x="84" y="360" font-size="12" fill="#333" text-anchor="start" font-family="Menlo, monospace">/a2a/rest/</text>
<line x1="214" y1="356" x2="270" y2="356" stroke="#7b8ca5" stroke-width="1.6" marker-end="url(#a)"/>
<text x="300" y="360" font-size="12.5" fill="#326CE5" text-anchor="start" font-weight="bold">v1.0</text>
<text x="484" y="360" font-size="12" fill="#333" text-anchor="start" font-family="Menlo, monospace">/a2a/rest/v1/</text>
<line x1="614" y1="356" x2="670" y2="356" stroke="#7b8ca5" stroke-width="1.6" marker-end="url(#a)"/>
<text x="700" y="360" font-size="12.5" fill="#777" text-anchor="start" font-weight="bold">v0.3</text>
<text x="450.0" y="428" font-size="9.5" fill="#777" text-anchor="middle">JSON-RPC는 주소 하나에서 헤더로만 나누어진다. 스펙 3.6.1절이 헤더를 반드시 보내라고 하면서</text>
<text x="450.0" y="441" font-size="9.5" fill="#777" text-anchor="middle">같은 문장에서 헤더가 없으면 v0.3으로 본다고 적어 두었다. 그래서 헤더를 빠뜨린 v1.0</text>
<text x="450.0" y="454" font-size="9.5" fill="#777" text-anchor="middle">클라이언트는 정상 응답을 받으면서 v0.3으로 처리된다.</text>
</svg>
